<svg id="svg" version="1.1" xmlns="http://www.w3.org/2000/svg" xmlns:xlink="http://www.w3.org/1999/xlink" width="400" height="211.76470588235296" viewBox="0, 0, 400,211.76470588235296"><g id="svgg"><path id="path0" d="M288.739 2.292 C 281.276 4.981,267.474 11.558,261.176 15.427 C 258.588 17.017,255.563 18.845,254.454 19.488 C 253.345 20.131,250.471 21.795,248.067 23.185 C 241.521 26.973,234.142 31.468,229.244 34.651 C 226.840 36.212,223.059 38.427,220.840 39.572 C 204.941 47.779,170.249 75.531,168.329 81.577 C 168.086 82.346,167.182 83.528,166.321 84.205 C 163.164 86.689,163.396 92.773,166.647 92.773 C 168.684 92.773,171.292 90.783,179.832 82.714 C 213.520 50.884,295.794 0.575,300.831 8.725 C 301.678 10.095,295.562 25.246,291.055 32.941 C 290.730 33.496,289.191 36.218,287.634 38.992 C 286.077 41.765,282.578 47.764,279.858 52.324 C 260.217 85.252,259.642 99.820,277.862 102.893 C 287.811 104.571,300.816 101.898,332.437 91.672 C 352.450 85.201,369.918 81.937,386.096 81.648 C 398.714 81.422,400.000 81.114,400.000 78.319 C 400.000 73.526,364.860 72.235,353.364 76.606 C 352.502 76.933,348.349 77.698,344.134 78.304 C 339.866 78.918,329.172 81.453,320.000 84.024 C 298.487 90.056,298.963 89.938,292.785 90.797 C 271.748 93.723,271.328 89.098,289.697 56.787 C 295.367 46.815,301.010 37.143,302.237 35.294 C 318.582 10.675,311.761 -6.003,288.739 2.292 M90.084 60.087 C 77.503 64.609,54.235 82.493,36.639 101.163 C 30.753 107.408,27.828 110.077,27.682 109.336 C 27.388 107.846,25.731 107.939,25.244 109.472 C 25.028 110.152,24.063 111.131,23.099 111.647 C 22.135 112.163,20.628 113.648,19.751 114.948 C 18.874 116.248,17.399 118.218,16.475 119.328 C -1.096 140.405,-3.857 151.794,6.771 159.362 C 10.359 161.917,13.946 158.563,11.164 155.256 C 8.926 152.597,8.961 151.206,11.400 146.053 C 25.533 116.177,78.767 66.555,96.683 66.555 C 101.706 66.555,88.942 104.697,76.009 128.332 L 73.289 133.302 72.320 130.983 C 71.788 129.708,71.146 127.847,70.895 126.846 C 69.658 121.918,61.622 120.873,54.066 124.658 C 46.042 128.677,35.630 138.441,35.630 141.945 C 35.630 142.694,35.151 143.193,34.433 143.193 C 33.768 143.193,32.884 144.014,32.443 145.042 C 32.006 146.059,30.274 149.311,28.594 152.269 C 26.913 155.227,24.894 159.387,24.107 161.513 C 23.321 163.639,22.436 165.378,22.142 165.378 C 21.848 165.378,21.264 167.037,20.843 169.064 C 19.633 174.891,18.666 174.493,16.168 167.138 C 15.480 165.113,14.541 163.608,13.886 163.480 C 11.974 163.107,12.448 169.540,14.838 176.392 C 17.105 182.892,17.108 182.512,14.678 194.935 C 11.939 208.940,15.376 214.576,24.532 211.095 C 28.273 209.672,38.804 198.174,52.404 180.664 C 55.494 176.685,58.111 173.517,58.219 173.625 C 58.326 173.732,57.684 177.983,56.792 183.070 C 53.088 204.199,53.831 208.285,61.249 207.572 C 66.110 207.105,70.481 203.763,80.248 193.044 C 114.568 155.377,143.725 130.894,166.050 120.994 C 181.071 114.333,186.809 113.091,209.615 111.567 C 235.209 109.856,258.824 100.181,258.824 91.405 C 258.824 88.184,256.850 87.849,250.693 90.022 C 248.694 90.727,244.336 92.257,241.008 93.421 C 237.681 94.585,234.353 95.792,233.613 96.103 C 230.981 97.211,224.658 98.199,211.873 99.502 C 191.392 101.589,174.591 105.568,164.068 110.824 C 158.907 113.401,146.163 120.958,142.588 123.561 C 140.961 124.745,139.222 125.714,138.723 125.714 C 138.224 125.714,137.815 125.974,137.815 126.291 C 137.815 126.609,136.161 127.967,134.139 129.309 C 126.039 134.688,107.502 151.472,82.153 176.379 C 73.169 185.207,65.700 192.311,65.555 192.166 C 65.410 192.020,66.658 184.951,68.328 176.455 C 69.998 167.959,71.663 159.432,72.027 157.505 C 72.503 154.990,74.547 150.910,79.268 143.051 C 102.419 104.513,113.580 73.211,107.640 63.476 C 104.944 59.055,97.143 57.550,90.084 60.087 M61.178 133.448 C 62.329 136.478,62.729 145.347,61.859 148.556 C 61.063 151.489,52.626 165.522,49.811 168.595 C 49.037 169.440,48.403 170.421,48.403 170.774 C 48.403 171.128,47.798 171.795,47.059 172.257 C 46.319 172.719,45.714 173.441,45.714 173.861 C 45.714 174.281,45.247 175.013,44.675 175.488 C 44.104 175.962,43.792 176.755,43.982 177.251 C 44.174 177.751,43.889 178.151,43.340 178.151 C 42.797 178.151,42.353 178.425,42.353 178.759 C 42.353 180.410,25.354 199.248,24.572 198.465 C 22.953 196.847,24.494 189.870,26.555 189.483 C 28.385 189.139,28.585 186.825,27.007 184.231 C 25.381 181.557,26.318 177.253,31.080 165.533 C 38.242 147.900,58.473 126.335,61.178 133.448 " stroke="none" fill="#000000" fill-rule="evenodd"></path></g></svg>